<svg xmlns="http://www.w3.org/2000/svg" viewBox="0 0 32 32" fill="none">
  <circle cx="16" cy="16" r="15" fill="#25D366"/>
  <path fill="#fff" d="M23.2 8.7A10 10 0 0 0 7.5 20.8L6 26l5.3-1.4A10 10 0 0 0 26 15.8c0-2.7-1-5.2-2.8-7.1Zm-7.1 15.4a8.3 8.3 0 0 1-4.2-1.2l-.3-.2-3.1.8.8-3-.2-.4a8.2 8.2 0 1 1 7 4Zm4.5-6.2c-.2-.1-1.5-.7-1.7-.8-.2-.1-.4-.1-.6.1l-.8 1c-.1.2-.3.2-.5.1a6.7 6.7 0 0 1-2-1.2 7.4 7.4 0 0 1-1.4-1.7c-.1-.2 0-.4.1-.5l.4-.5.2-.4c.1-.2 0-.4 0-.5l-.8-1.9c-.2-.5-.4-.4-.6-.4h-.5c-.2 0-.5.1-.7.3-.2.3-1 1-1 2.4s1 2.8 1.2 3c.1.2 2 3.1 4.9 4.3.7.3 1.2.5 1.6.6.7.2 1.3.2 1.8.1.6-.1 1.5-.6 1.7-1.2.2-.6.2-1.1.2-1.2-.1-.1-.3-.2-.5-.3Z"/>
</svg>
