<svg xmlns="http://www.w3.org/2000/svg" viewBox="0 0 24 24" role="img" aria-labelledby="title">
  <title id="title">Google</title>
  <path fill="#4285F4" d="M21.6 12.23c0-.71-.06-1.24-.2-1.8H12v3.41h5.52a4.72 4.72 0 0 1-2.05 3.1v2.21h3.32c1.94-1.79 2.81-4.42 2.81-6.92Z"/>
  <path fill="#34A853" d="M12 22c2.7 0 4.97-.89 6.63-2.42l-3.32-2.21c-.92.62-2.09.99-3.31.99-2.61 0-4.82-1.76-5.61-4.13H2.96v2.28A10 10 0 0 0 12 22Z"/>
  <path fill="#FBBC05" d="M6.39 14.23A6.01 6.01 0 0 1 6.08 12c0-.78.13-1.53.31-2.23V7.49H2.96A10 10 0 0 0 2 12c0 1.61.38 3.13.96 4.51l3.43-2.28Z"/>
  <path fill="#EA4335" d="M12 5.64c1.48 0 2.81.51 3.86 1.51l2.88-2.88A9.68 9.68 0 0 0 12 2a10 10 0 0 0-9.04 5.49l3.43 2.28C7.18 7.4 9.39 5.64 12 5.64Z"/>
</svg>